<svg width="44" height="45" viewBox="0 0 44 45" fill="none" xmlns="http://www.w3.org/2000/svg">
<path fill-rule="evenodd" clip-rule="evenodd" d="M31.2493 0.641602C33.989 0.641602 36.4716 1.7321 38.2697 3.49255C40.0713 5.25385 41.1841 7.68855 41.1841 10.3778C41.1841 13.0654 40.0713 15.5009 38.2741 17.2614L38.2048 17.325C36.4119 19.0485 33.9565 20.1132 31.2493 20.1132C28.5095 20.1132 26.0269 19.0227 24.2288 17.2614C22.4272 15.5009 21.3145 13.0654 21.3145 10.3778C21.3145 9.52124 21.4277 8.68961 21.64 7.89839C18.3229 8.02568 15.0926 9.16347 12.4591 11.1252C9.34724 13.4429 7.07086 16.9225 6.47675 21.2535L8.54515 21.2716C8.80666 21.2862 8.99271 21.3748 9.10065 21.5373C9.39463 21.9777 8.97954 22.4051 8.69872 22.7078C7.89313 23.5618 5.79753 26.2072 5.40263 26.6587C5.34085 26.734 5.26251 26.7946 5.17345 26.836C5.0844 26.8774 4.98694 26.8985 4.88838 26.8978C4.78972 26.897 4.69255 26.8742 4.60422 26.8311C4.51588 26.7881 4.4387 26.7259 4.37852 26.6493C3.97484 26.178 1.83097 23.401 1.07803 22.5573C0.816521 22.2649 0.495335 21.8633 0.774398 21.4625C0.882337 21.3026 1.07101 21.2174 1.3334 21.2071L3.39127 21.226L3.4018 21.1185C4.0547 15.826 6.81549 11.5672 10.6118 8.73949C14.1413 6.10957 18.5703 4.72666 23.0318 4.90469C23.3837 4.39728 23.783 3.92513 24.2244 3.49255C26.0208 1.7321 28.5052 0.641602 31.2493 0.641602ZM21.454 38.4099C20.1719 40.7733 17.6349 42.3832 14.7126 42.3832C11.7877 42.3832 9.24895 40.7715 7.96772 38.4039C8.12744 38.3016 8.30997 38.207 8.46091 38.1261C9.4815 37.5689 11.8649 37.6101 12.6995 36.8731L13.7113 39.8453L13.8307 40.0612L14.2817 38.7995L13.9772 38.4727C13.7464 38.1433 13.8263 37.771 14.2519 37.703C14.3949 37.6807 14.5564 37.6944 14.7126 37.6944C14.8776 37.6944 15.0628 37.6798 15.2181 37.7133C15.6139 37.7993 15.6551 38.1743 15.4577 38.4727L15.1523 38.7995L15.5858 40.0079L15.6718 39.8453L16.8732 36.8731C17.6261 37.5388 20.2816 37.6712 21.1117 38.1261L21.454 38.4099ZM14.7109 25.17C17.4506 25.17 19.9332 26.2605 21.7313 28.021C23.5329 29.7823 24.6457 32.217 24.6457 34.9063C24.6457 36.2909 24.3499 37.6084 23.8181 38.8013C26.435 38.5174 28.9562 37.6058 31.1282 36.1645C34.218 34.1125 36.6041 30.9811 37.5484 27.0552C37.6194 26.7602 37.6818 26.4618 37.737 26.1625L35.5001 26.2098C35.2281 26.2021 35.0307 26.1161 34.9139 25.9518C34.5945 25.5029 35.0113 25.0453 35.2939 24.722C36.103 23.8104 38.1934 20.9981 38.5891 20.5165C38.651 20.4363 38.7306 20.3709 38.8219 20.3252C38.9133 20.2794 39.014 20.2546 39.1166 20.2525C39.3237 20.2482 39.5211 20.3376 39.6536 20.4941C40.0889 20.9715 42.4048 23.7889 43.2139 24.642C43.4947 24.9378 43.8422 25.3446 43.5649 25.7703C43.4569 25.9398 43.2648 26.0335 42.9918 26.0524L40.8497 26.098C40.7672 26.663 40.6619 27.21 40.5347 27.7372C39.4035 32.4363 36.5471 36.186 32.8438 38.6439C29.5652 40.8206 25.6189 41.9816 21.6251 41.8921C19.8367 43.5924 17.3979 44.6416 14.7109 44.6416C11.9711 44.6416 9.48852 43.5511 7.69041 41.7898C5.88879 40.0294 4.77605 37.5938 4.77605 34.9063C4.77605 32.217 5.88879 29.7823 7.68602 28.021C9.48238 26.2605 11.9667 25.17 14.7109 25.17ZM14.7109 26.2967C19.5629 26.2967 23.4961 30.1512 23.4961 34.9063C23.4961 39.6604 19.5629 43.515 14.7109 43.515C9.85885 43.515 5.92565 39.6604 5.92565 34.9063C5.92565 30.1512 9.85885 26.2967 14.7109 26.2967ZM13.0514 36.3605C12.7162 36.0698 12.452 35.8583 12.3959 35.2528L12.359 35.2537C12.2765 35.2528 12.1967 35.2348 12.1221 35.1926C12.0027 35.1264 11.9176 35.0112 11.8606 34.8813C11.7403 34.6104 11.6447 33.8957 11.9483 33.6936L11.8851 33.5775C11.8737 33.433 11.8702 33.2593 11.8685 33.0761C11.8562 32.4062 11.8421 31.5935 11.2919 31.4301L11.055 31.3604L11.212 31.1721C11.6561 30.6337 12.1203 30.1616 12.5907 29.8012C13.1199 29.391 13.6587 29.1192 14.1861 29.0401C14.7275 28.9593 15.2541 29.0822 15.7385 29.4658C15.8815 29.5793 16.021 29.7161 16.1544 29.876C16.6731 29.9251 17.0952 30.1977 17.3971 30.5881C17.5778 30.8203 17.7147 31.0955 17.8016 31.3879C17.8894 31.6795 17.9271 31.9899 17.9104 32.2952C17.8815 32.8422 17.677 33.3763 17.2663 33.7659C17.3391 33.7685 17.4058 33.7839 17.4664 33.8158C17.6954 33.937 17.7033 34.1976 17.6428 34.4169C17.5831 34.6001 17.5085 34.8134 17.4365 34.9914C17.3488 35.2322 17.2224 35.2778 16.9767 35.2511C16.9644 35.848 16.6836 36.0114 16.3063 36.3605C16.0421 37.1208 13.3612 37.1036 13.0514 36.3605ZM37.9924 13.8815C36.7103 16.2448 34.1724 17.8548 31.2501 17.8548C28.3261 17.8548 25.7874 16.2431 24.5061 13.8755C24.6658 13.7723 24.8484 13.6785 24.9993 13.5977C26.019 13.0404 28.4025 13.0817 29.2379 12.3447L30.2497 15.3169L30.3682 15.5327L30.8201 14.2711L30.5148 13.9443C30.2848 13.6149 30.3647 13.2425 30.7894 13.1746C30.9334 13.1522 31.0948 13.166 31.251 13.166C31.416 13.166 31.6003 13.1514 31.7565 13.1849C32.1523 13.2709 32.1926 13.6459 31.9961 13.9443L31.6907 14.2711L32.1233 15.4786L32.2102 15.3169L33.4116 12.3447C34.1645 13.0103 36.82 13.1428 37.6502 13.5977L37.9924 13.8815ZM29.5898 11.8321C29.2546 11.5414 28.9904 11.3298 28.9343 10.7244L28.8974 10.7253C28.8149 10.7244 28.7351 10.7063 28.6605 10.6642C28.5403 10.598 28.456 10.4827 28.399 10.3529C28.2787 10.082 28.1831 9.3673 28.4867 9.16433L28.4235 9.04909C28.4113 8.90461 28.4086 8.73089 28.406 8.5477C28.3946 7.87775 28.3805 7.06504 27.8303 6.90164L27.5934 6.83112L27.7505 6.64363C28.1936 6.10441 28.6587 5.63312 29.1291 5.27191C29.6583 4.86255 30.1971 4.59078 30.7236 4.51166C31.2659 4.43082 31.7916 4.5538 32.276 4.93737C32.4199 5.05089 32.5595 5.18763 32.6928 5.34759C33.2115 5.39662 33.6336 5.66924 33.9355 6.05969C34.1162 6.29189 34.2531 6.56709 34.34 6.8595C34.4269 7.15018 34.4655 7.46151 34.4488 7.76681C34.4199 8.31378 34.2154 8.84785 33.8047 9.23743C33.8767 9.24001 33.9442 9.25549 34.0048 9.28732C34.2338 9.40772 34.2417 9.6683 34.1812 9.88846C34.1215 10.0716 34.0469 10.2841 33.975 10.463C33.8872 10.7029 33.7608 10.7493 33.5151 10.7227C33.5028 11.3195 33.222 11.4829 32.8447 11.8321C32.5805 12.5923 29.8996 12.5751 29.5898 11.8321ZM31.2493 1.76822C36.1013 1.76822 40.0345 5.6228 40.0345 10.3778C40.0345 15.132 36.1013 18.9865 31.2493 18.9865C26.3973 18.9865 22.4641 15.132 22.4641 10.3778C22.4641 5.6228 26.3973 1.76822 31.2493 1.76822Z" fill="#1A1F36"/>
</svg>
