<svg width="131" height="28" viewBox="0 0 131 28" fill="none" xmlns="http://www.w3.org/2000/svg">
<path d="M6.82842 21.14C5.80176 21.14 4.88176 20.9733 4.06842 20.64C3.25509 20.3067 2.60176 19.8133 2.10842 19.16C1.62842 18.5067 1.37509 17.72 1.34842 16.8H4.98842C5.04176 17.32 5.22176 17.72 5.52842 18C5.83509 18.2667 6.23509 18.4 6.72842 18.4C7.23509 18.4 7.63509 18.2867 7.92842 18.06C8.22176 17.82 8.36842 17.4933 8.36842 17.08C8.36842 16.7333 8.24842 16.4467 8.00842 16.22C7.78176 15.9933 7.49509 15.8067 7.14842 15.66C6.81509 15.5133 6.33509 15.3467 5.70842 15.16C4.80176 14.88 4.06176 14.6 3.48842 14.32C2.91509 14.04 2.42176 13.6267 2.00842 13.08C1.59509 12.5333 1.38842 11.82 1.38842 10.94C1.38842 9.63333 1.86176 8.61333 2.80842 7.88C3.75509 7.13333 4.98842 6.76 6.50842 6.76C8.05509 6.76 9.30176 7.13333 10.2484 7.88C11.1951 8.61333 11.7018 9.64 11.7684 10.96H8.06842C8.04176 10.5067 7.87509 10.1533 7.56842 9.9C7.26176 9.63333 6.86842 9.5 6.38842 9.5C5.97509 9.5 5.64176 9.61333 5.38842 9.84C5.13509 10.0533 5.00842 10.3667 5.00842 10.78C5.00842 11.2333 5.22176 11.5867 5.64842 11.84C6.07509 12.0933 6.74176 12.3667 7.64842 12.66C8.55509 12.9667 9.28842 13.26 9.84842 13.54C10.4218 13.82 10.9151 14.2267 11.3284 14.76C11.7418 15.2933 11.9484 15.98 11.9484 16.82C11.9484 17.62 11.7418 18.3467 11.3284 19C10.9284 19.6533 10.3418 20.1733 9.56842 20.56C8.79509 20.9467 7.88176 21.14 6.82842 21.14ZM20.8731 21L17.4731 16.32V21H14.0531V6.2H17.4731V14.38L20.8531 9.84H25.0731L20.4331 15.44L25.1131 21H20.8731ZM28.1364 8.68C27.5364 8.68 27.0431 8.50667 26.6564 8.16C26.2831 7.8 26.0964 7.36 26.0964 6.84C26.0964 6.30667 26.2831 5.86667 26.6564 5.52C27.0431 5.16 27.5364 4.98 28.1364 4.98C28.7231 4.98 29.2031 5.16 29.5764 5.52C29.9631 5.86667 30.1564 6.30667 30.1564 6.84C30.1564 7.36 29.9631 7.8 29.5764 8.16C29.2031 8.50667 28.7231 8.68 28.1364 8.68ZM29.8364 9.84V21H26.4164V9.84H29.8364ZM35.7348 6.2V21H32.3148V6.2H35.7348ZM41.6333 6.2V21H38.2133V6.2H41.6333ZM48.6517 21.16C47.6784 21.16 46.8117 20.9933 46.0517 20.66C45.2917 20.3267 44.6917 19.8733 44.2517 19.3C43.8117 18.7133 43.565 18.06 43.5117 17.34H46.8917C46.9317 17.7267 47.1117 18.04 47.4317 18.28C47.7517 18.52 48.145 18.64 48.6117 18.64C49.0384 18.64 49.365 18.56 49.5917 18.4C49.8317 18.2267 49.9517 18.0067 49.9517 17.74C49.9517 17.42 49.785 17.1867 49.4517 17.04C49.1184 16.88 48.5784 16.7067 47.8317 16.52C47.0317 16.3333 46.365 16.14 45.8317 15.94C45.2984 15.7267 44.8384 15.4 44.4517 14.96C44.065 14.5067 43.8717 13.9 43.8717 13.14C43.8717 12.5 44.045 11.92 44.3917 11.4C44.7517 10.8667 45.2717 10.4467 45.9517 10.14C46.645 9.83333 47.465 9.68 48.4117 9.68C49.8117 9.68 50.9117 10.0267 51.7117 10.72C52.525 11.4133 52.9917 12.3333 53.1117 13.48H49.9517C49.8984 13.0933 49.725 12.7867 49.4317 12.56C49.1517 12.3333 48.7784 12.22 48.3117 12.22C47.9117 12.22 47.605 12.3 47.3917 12.46C47.1784 12.6067 47.0717 12.8133 47.0717 13.08C47.0717 13.4 47.2384 13.64 47.5717 13.8C47.9184 13.96 48.4517 14.12 49.1717 14.28C49.9984 14.4933 50.6717 14.7067 51.1917 14.92C51.7117 15.12 52.165 15.4533 52.5517 15.92C52.9517 16.3733 53.1584 16.9867 53.1717 17.76C53.1717 18.4133 52.985 19 52.6117 19.52C52.2517 20.0267 51.725 20.4267 51.0317 20.72C50.3517 21.0133 49.5584 21.16 48.6517 21.16ZM54.684 13.96C54.684 12.5733 54.984 11.34 55.584 10.26C56.184 9.16667 57.0174 8.32 58.084 7.72C59.164 7.10667 60.384 6.8 61.744 6.8C63.4107 6.8 64.8374 7.24 66.024 8.12C67.2107 9 68.004 10.2 68.404 11.72H64.644C64.364 11.1333 63.964 10.6867 63.444 10.38C62.9374 10.0733 62.3574 9.92 61.704 9.92C60.6507 9.92 59.7974 10.2867 59.144 11.02C58.4907 11.7533 58.164 12.7333 58.164 13.96C58.164 15.1867 58.4907 16.1667 59.144 16.9C59.7974 17.6333 60.6507 18 61.704 18C62.3574 18 62.9374 17.8467 63.444 17.54C63.964 17.2333 64.364 16.7867 64.644 16.2H68.404C68.004 17.72 67.2107 18.92 66.024 19.8C64.8374 20.6667 63.4107 21.1 61.744 21.1C60.384 21.1 59.164 20.8 58.084 20.2C57.0174 19.5867 56.184 18.74 55.584 17.66C54.984 16.58 54.684 15.3467 54.684 13.96ZM69.8184 15.4C69.8184 14.2533 70.0318 13.2467 70.4584 12.38C70.8984 11.5133 71.4918 10.8467 72.2384 10.38C72.9851 9.91333 73.8184 9.68 74.7384 9.68C75.5251 9.68 76.2118 9.84 76.7984 10.16C77.3984 10.48 77.8584 10.9 78.1784 11.42V9.84H81.5984V21H78.1784V19.42C77.8451 19.94 77.3784 20.36 76.7784 20.68C76.1918 21 75.5051 21.16 74.7184 21.16C73.8118 21.16 72.9851 20.9267 72.2384 20.46C71.4918 19.98 70.8984 19.3067 70.4584 18.44C70.0318 17.56 69.8184 16.5467 69.8184 15.4ZM78.1784 15.42C78.1784 14.5667 77.9384 13.8933 77.4584 13.4C76.9918 12.9067 76.4184 12.66 75.7384 12.66C75.0584 12.66 74.4784 12.9067 73.9984 13.4C73.5318 13.88 73.2984 14.5467 73.2984 15.4C73.2984 16.2533 73.5318 16.9333 73.9984 17.44C74.4784 17.9333 75.0584 18.18 75.7384 18.18C76.4184 18.18 76.9918 17.9333 77.4584 17.44C77.9384 16.9467 78.1784 16.2733 78.1784 15.42ZM87.4926 11.42C87.826 10.9 88.286 10.48 88.8726 10.16C89.4593 9.84 90.146 9.68 90.9326 9.68C91.8526 9.68 92.686 9.91333 93.4326 10.38C94.1793 10.8467 94.766 11.5133 95.1926 12.38C95.6326 13.2467 95.8526 14.2533 95.8526 15.4C95.8526 16.5467 95.6326 17.56 95.1926 18.44C94.766 19.3067 94.1793 19.98 93.4326 20.46C92.686 20.9267 91.8526 21.16 90.9326 21.16C90.1593 21.16 89.4726 21 88.8726 20.68C88.286 20.36 87.826 19.9467 87.4926 19.44V26.32H84.0726V9.84H87.4926V11.42ZM92.3726 15.4C92.3726 14.5467 92.1326 13.88 91.6526 13.4C91.186 12.9067 90.606 12.66 89.9126 12.66C89.2326 12.66 88.6526 12.9067 88.1726 13.4C87.706 13.8933 87.4726 14.5667 87.4726 15.42C87.4726 16.2733 87.706 16.9467 88.1726 17.44C88.6526 17.9333 89.2326 18.18 89.9126 18.18C90.5926 18.18 91.1726 17.9333 91.6526 17.44C92.1326 16.9333 92.3726 16.2533 92.3726 15.4ZM99.3669 8.68C98.7669 8.68 98.2735 8.50667 97.8869 8.16C97.5135 7.8 97.3269 7.36 97.3269 6.84C97.3269 6.30667 97.5135 5.86667 97.8869 5.52C98.2735 5.16 98.7669 4.98 99.3669 4.98C99.9535 4.98 100.434 5.16 100.807 5.52C101.194 5.86667 101.387 6.30667 101.387 6.84C101.387 7.36 101.194 7.8 100.807 8.16C100.434 8.50667 99.9535 8.68 99.3669 8.68ZM101.067 9.84V21H97.6469V9.84H101.067ZM109.765 18.1V21H108.025C106.785 21 105.819 20.7 105.125 20.1C104.432 19.4867 104.085 18.4933 104.085 17.12V12.68H102.725V9.84H104.085V7.12H107.505V9.84H109.745V12.68H107.505V17.16C107.505 17.4933 107.585 17.7333 107.745 17.88C107.905 18.0267 108.172 18.1 108.545 18.1H109.765ZM110.99 15.4C110.99 14.2533 111.204 13.2467 111.63 12.38C112.07 11.5133 112.664 10.8467 113.41 10.38C114.157 9.91333 114.99 9.68 115.91 9.68C116.697 9.68 117.384 9.84 117.97 10.16C118.57 10.48 119.03 10.9 119.35 11.42V9.84H122.77V21H119.35V19.42C119.017 19.94 118.55 20.36 117.95 20.68C117.364 21 116.677 21.16 115.89 21.16C114.984 21.16 114.157 20.9267 113.41 20.46C112.664 19.98 112.07 19.3067 111.63 18.44C111.204 17.56 110.99 16.5467 110.99 15.4ZM119.35 15.42C119.35 14.5667 119.11 13.8933 118.63 13.4C118.164 12.9067 117.59 12.66 116.91 12.66C116.23 12.66 115.65 12.9067 115.17 13.4C114.704 13.88 114.47 14.5467 114.47 15.4C114.47 16.2533 114.704 16.9333 115.17 17.44C115.65 17.9333 116.23 18.18 116.91 18.18C117.59 18.18 118.164 17.9333 118.63 17.44C119.11 16.9467 119.35 16.2733 119.35 15.42ZM128.665 6.2V21H125.245V6.2H128.665Z" fill="#1C1E53"/>
</svg>
