<svg width="153" height="25" viewBox="0 0 153 25" fill="none" xmlns="http://www.w3.org/2000/svg">
<g clip-path="url(#clip0_450_4246)">
<path d="M24.2781 12.3955C24.2781 5.76809 18.9055 0.395508 12.2781 0.395508C5.65065 0.395508 0.278076 5.76809 0.278076 12.3955C0.278076 18.385 4.66628 23.3495 10.4031 24.2497V15.8643H7.3562V12.3955H10.4031V9.75176C10.4031 6.74426 12.1946 5.08301 14.9357 5.08301C16.2482 5.08301 17.6218 5.31738 17.6218 5.31738V8.27051H16.1087C14.6181 8.27051 14.1531 9.19559 14.1531 10.1455V12.3955H17.4812L16.9492 15.8643H14.1531V24.2497C19.8899 23.3495 24.2781 18.385 24.2781 12.3955Z" fill="white"/>
</g>
<g clip-path="url(#clip1_450_4246)">
<path d="M50.8282 22.1462C59.8826 22.1462 64.8364 14.6429 64.8364 8.1381C64.8364 7.92716 64.8317 7.71154 64.8223 7.5006C65.786 6.8037 66.6176 5.94049 67.2781 4.95154C66.3806 5.35084 65.4277 5.61162 64.452 5.72498C65.4794 5.10915 66.2486 4.14171 66.6171 3.00201C65.6506 3.5748 64.5937 3.97885 63.4915 4.19685C62.7489 3.4078 61.7671 2.88536 60.6978 2.71029C59.6285 2.53523 58.5313 2.71729 57.5758 3.22834C56.6204 3.73938 55.8599 4.55095 55.4119 5.53755C54.964 6.52416 54.8535 7.63086 55.0976 8.68654C53.1406 8.58833 51.226 8.07994 49.4781 7.19434C47.7301 6.30873 46.1878 5.06568 44.951 3.54576C44.3225 4.62948 44.1301 5.91189 44.4131 7.13233C44.6961 8.35278 45.4331 9.41969 46.4745 10.1162C45.6927 10.0914 44.9281 9.88092 44.2437 9.50216V9.5631C44.243 10.7004 44.6362 11.8028 45.3564 12.683C46.0766 13.5632 47.0794 14.1668 48.1943 14.3912C47.4701 14.5894 46.7101 14.6182 45.9729 14.4756C46.2875 15.4537 46.8996 16.3091 47.7238 16.9226C48.548 17.536 49.5432 17.8768 50.5704 17.8975C48.8265 19.2673 46.6723 20.0104 44.4546 20.0069C44.0614 20.0063 43.6685 19.9821 43.2781 19.9347C45.5309 21.38 48.1516 22.1476 50.8282 22.1462Z" fill="white"/>
</g>
<g clip-path="url(#clip2_450_4246)">
<path d="M97.2781 2.55645C100.484 2.55645 100.864 2.57051 102.125 2.62676C103.297 2.67832 103.93 2.8752 104.352 3.03926C104.909 3.25488 105.312 3.51738 105.73 3.93457C106.152 4.35645 106.409 4.75488 106.625 5.3127C106.789 5.73457 106.986 6.37207 107.037 7.53926C107.094 8.80488 107.108 9.18457 107.108 12.3861C107.108 15.5924 107.094 15.9721 107.037 17.233C106.986 18.4049 106.789 19.0377 106.625 19.4596C106.409 20.0174 106.147 20.4205 105.73 20.8377C105.308 21.2596 104.909 21.5174 104.352 21.733C103.93 21.8971 103.292 22.0939 102.125 22.1455C100.859 22.2018 100.48 22.2158 97.2781 22.2158C94.0718 22.2158 93.6921 22.2018 92.4312 22.1455C91.2593 22.0939 90.6265 21.8971 90.2046 21.733C89.6468 21.5174 89.2437 21.2549 88.8265 20.8377C88.4046 20.4158 88.1468 20.0174 87.9312 19.4596C87.7671 19.0377 87.5703 18.4002 87.5187 17.233C87.4625 15.9674 87.4484 15.5877 87.4484 12.3861C87.4484 9.17988 87.4625 8.80019 87.5187 7.53926C87.5703 6.36738 87.7671 5.73457 87.9312 5.3127C88.1468 4.75488 88.4093 4.35176 88.8265 3.93457C89.2484 3.5127 89.6468 3.25488 90.2046 3.03926C90.6265 2.8752 91.264 2.67832 92.4312 2.62676C93.6921 2.57051 94.0718 2.55645 97.2781 2.55645ZM97.2781 0.395508C94.0203 0.395508 93.6125 0.40957 92.3328 0.46582C91.0578 0.52207 90.1812 0.72832 89.4218 1.02363C88.6296 1.33301 87.9593 1.74082 87.2937 2.41113C86.6234 3.07676 86.2156 3.74707 85.9062 4.53457C85.6109 5.29863 85.4046 6.17051 85.3484 7.44551C85.2921 8.72988 85.2781 9.1377 85.2781 12.3955C85.2781 15.6533 85.2921 16.0611 85.3484 17.3408C85.4046 18.6158 85.6109 19.4924 85.9062 20.2518C86.2156 21.0439 86.6234 21.7143 87.2937 22.3799C87.9593 23.0455 88.6296 23.458 89.4171 23.7627C90.1812 24.058 91.0531 24.2643 92.3281 24.3205C93.6078 24.3768 94.0156 24.3908 97.2734 24.3908C100.531 24.3908 100.939 24.3768 102.219 24.3205C103.494 24.2643 104.37 24.058 105.13 23.7627C105.917 23.458 106.587 23.0455 107.253 22.3799C107.919 21.7143 108.331 21.0439 108.636 20.2564C108.931 19.4924 109.137 18.6205 109.194 17.3455C109.25 16.0658 109.264 15.658 109.264 12.4002C109.264 9.14238 109.25 8.73457 109.194 7.45488C109.137 6.17988 108.931 5.30332 108.636 4.54395C108.341 3.74707 107.933 3.07676 107.262 2.41113C106.597 1.74551 105.927 1.33301 105.139 1.02832C104.375 0.733008 103.503 0.526758 102.228 0.470508C100.944 0.40957 100.536 0.395508 97.2781 0.395508Z" fill="white"/>
<path d="M97.2781 6.23145C93.875 6.23145 91.114 8.99238 91.114 12.3955C91.114 15.7986 93.875 18.5596 97.2781 18.5596C100.681 18.5596 103.442 15.7986 103.442 12.3955C103.442 8.99238 100.681 6.23145 97.2781 6.23145ZM97.2781 16.3939C95.0703 16.3939 93.2796 14.6033 93.2796 12.3955C93.2796 10.1877 95.0703 8.39707 97.2781 8.39707C99.4859 8.39707 101.277 10.1877 101.277 12.3955C101.277 14.6033 99.4859 16.3939 97.2781 16.3939Z" fill="white"/>
<path d="M105.125 5.98692C105.125 6.78379 104.478 7.42598 103.686 7.42598C102.889 7.42598 102.247 6.7791 102.247 5.98692C102.247 5.19004 102.894 4.54785 103.686 4.54785C104.478 4.54785 105.125 5.19473 105.125 5.98692Z" fill="white"/>
</g>
<g clip-path="url(#clip3_450_4246)">
<path d="M150.502 0.395508H130.05C129.07 0.395508 128.278 1.16895 128.278 2.1252V22.6611C128.278 23.6174 129.07 24.3955 130.05 24.3955H150.502C151.481 24.3955 152.278 23.6174 152.278 22.6658V2.1252C152.278 1.16895 151.481 0.395508 150.502 0.395508ZM135.398 20.8471H131.836V9.39082H135.398V20.8471ZM133.617 7.82988C132.473 7.82988 131.55 6.90645 131.55 5.76738C131.55 4.62832 132.473 3.70488 133.617 3.70488C134.756 3.70488 135.68 4.62832 135.68 5.76738C135.68 6.90176 134.756 7.82988 133.617 7.82988ZM148.73 20.8471H145.172V15.2783C145.172 13.9518 145.148 12.2408 143.32 12.2408C141.469 12.2408 141.187 13.6893 141.187 15.1846V20.8471H137.634V9.39082H141.047V10.9564H141.094C141.567 10.0564 142.73 9.10488 144.459 9.10488C148.064 9.10488 148.73 11.4768 148.73 14.5611V20.8471Z" fill="white"/>
</g>
<defs>
<clipPath id="clip0_450_4246">
<rect width="24" height="24" fill="white" transform="translate(0.278076 0.395508)"/>
</clipPath>
<clipPath id="clip1_450_4246">
<rect width="24" height="24" fill="white" transform="translate(43.2781 0.395508)"/>
</clipPath>
<clipPath id="clip2_450_4246">
<rect width="24" height="24" fill="white" transform="translate(85.2781 0.395508)"/>
</clipPath>
<clipPath id="clip3_450_4246">
<rect width="24" height="24" fill="white" transform="translate(128.278 0.395508)"/>
</clipPath>
</defs>
</svg>
