<svg width="48" height="37" viewBox="0 0 48 37" fill="none" xmlns="http://www.w3.org/2000/svg">
<path d="M18.6751 2.53565V21.2108C18.6751 34.6893 6.46584 34.0029 1.875 34.507V33.8469C5.32088 33.5483 13.9667 31.7967 11.9347 19.3358H1.875V2.53565H18.6751ZM20.5501 0.660645H0V21.2108H10.2565C10.7859 25.9699 9.58641 32.0499 0 32.0499V36.4135C19.9376 36.4135 20.5501 26.5217 20.5501 21.2108V0.660645ZM46.125 2.53565V21.2108C46.125 34.6893 33.9158 34.0029 29.3249 34.507V33.8469C32.7708 33.5483 41.4166 31.7967 39.3846 19.3358H29.3249V2.53565H46.125ZM48 0.660645H27.4499V21.2108H37.7064C38.2357 25.97 37.0363 32.0499 27.4499 32.0499V36.4135C47.3875 36.4135 48 26.5217 48 21.2108V0.660645Z" fill="#1A1F36"/>
<path d="M0 21.2108H10.2565C10.7859 25.9699 9.58641 32.0499 0 32.0499V36.4135C19.9376 36.4135 20.5501 26.5217 20.5501 21.2108V0.660645H0V21.2108ZM1.875 2.53565H18.6751V21.2108C18.6751 34.6893 6.46584 34.0029 1.875 34.507V33.8469C5.32088 33.5483 13.9667 31.7967 11.9347 19.3358H1.875V2.53565ZM27.4499 0.660645V21.2108H37.7064C38.2357 25.97 37.0363 32.0499 27.4499 32.0499V36.4135C47.3875 36.4135 48 26.5217 48 21.2108V0.660645H27.4499ZM46.125 21.2108C46.125 34.6893 33.9158 34.0029 29.3249 34.507V33.8469C32.7708 33.5483 41.4166 31.7967 39.3846 19.3358H29.3249V2.53565H46.125V21.2108Z" fill="#1A1F36"/>
</svg>
